# xmcd
#
# Track frame offsets:
#	150
#	14961
#	27235
#	40599
#	57850
#	74674
#	89162
#	102513
#	116300
#	131888
#	143442
#	156344
#	168226
#	179963
#	195565
#	209298
#	223577
#	237456
#	252198
#
# Disc length: 3546 seconds
#
# Revision: 2597959614
# Processed by: cddbd v1.5.2PL0 Copyright (c) Steve Scherf et al.
# Submitted via: EZCDAudioConverter 9.0.7.1
#
DISCID=240dd813
DTITLE=Hennie De Bruyn, Zac Van Niekerk en Die Kitaarkêrels - Umfaan - Skoffel
DYEAR=2008
DGENRE=World Pop
TTITLE0=Umfaan
TTITLE1=Petronella
TTITLE2=Outa In Die Langpad
TTITLE3=Koe-Koek Wals
TTITLE4=Rooi Rok Bokkie
TTITLE5=Kitaar Boogie
TTITLE6=Rudi Se Vastrap
TTITLE7=Marikana
TTITLE8=Paloma Blanca
TTITLE9=Blikkiesdorp Vastrap
TTITLE10=Calla Se Vastrap
TTITLE11=Olie Kolonie
TTITLE12=Warmvat
TTITLE13=Hoe Sê Mens Dankie?
TTITLE14=Verwoerdburg Kwêla
TTITLE15=André Se Vastrap
TTITLE16=Tweewiel-Seties
TTITLE17=Sout En Peper
TTITLE18=Trippel-Trippel
EXTD=
EXTT0=
EXTT1=
EXTT2=
EXTT3=
EXTT4=
EXTT5=
EXTT6=
EXTT7=
EXTT8=
EXTT9=
EXTT10=
EXTT11=
EXTT12=
EXTT13=
EXTT14=
EXTT15=
EXTT16=
EXTT17=
EXTT18=
PLAYORDER=
